<svg width="14" height="15" viewBox="0 0 14 15" fill="none" xmlns="http://www.w3.org/2000/svg">
<path fill-rule="evenodd" clip-rule="evenodd" d="M6.29289 14.2437C6.48043 14.4078 6.73478 14.5 7 14.5C7.26521 14.5 7.51957 14.4078 7.7071 14.2437C7.89464 14.0796 8 13.8571 8 13.625V8.49985H13.125C13.3571 8.49985 13.5796 8.39449 13.7437 8.20696C13.9078 8.01942 14 7.76507 14 7.49985C14 7.23463 13.9078 6.98028 13.7437 6.79274C13.5796 6.60521 13.3571 6.49985 13.125 6.49985H8V1.375C8 1.14294 7.89464 0.920375 7.7071 0.756281C7.51957 0.592187 7.26521 0.5 7 0.5C6.73478 0.5 6.48043 0.592187 6.29289 0.756281C6.10535 0.920375 6 1.14294 6 1.375V6.49985H0.875C0.642936 6.49985 0.420376 6.60521 0.256282 6.79274C0.0921874 6.98028 0 7.23463 0 7.49985C0 7.76507 0.0921874 8.01942 0.256282 8.20696C0.420376 8.39449 0.642936 8.49985 0.875 8.49985H6V13.625C6 13.8571 6.10535 14.0796 6.29289 14.2437Z" fill="#333333"/>
</svg>
