<svg width="24" height="24" viewBox="0 0 24 24" fill="none" xmlns="http://www.w3.org/2000/svg">
<path d="M5.84341 4.56789C7.47635 2.93495 9.69109 2.01758 12.0004 2.01758C14.3097 2.01758 16.5245 2.93495 18.1574 4.56789C19.7903 6.20083 20.7077 8.41557 20.7077 10.7249C20.7077 13.0342 19.7903 15.249 18.1574 16.8819L16.9704 18.0559C16.0954 18.9139 14.9604 20.0179 13.5644 21.3679C13.1448 21.7736 12.584 22.0004 12.0004 22.0004C11.4168 22.0004 10.856 21.7736 10.4364 21.3679L6.94541 17.9719C6.50641 17.5409 6.13941 17.1779 5.84341 16.8819C5.03483 16.0734 4.39342 15.1135 3.95581 14.0571C3.5182 13.0006 3.29297 11.8684 3.29297 10.7249C3.29297 9.58142 3.5182 8.44914 3.95581 7.39272C4.39342 6.3363 5.03483 5.37642 5.84341 4.56789ZM17.0964 5.62789C15.7446 4.27635 13.9113 3.51716 11.9997 3.51735C10.0881 3.51754 8.25495 4.27708 6.90341 5.62889C5.55187 6.9807 4.79268 8.81404 4.79287 10.7256C4.79306 12.6372 5.5526 14.4703 6.90441 15.8219L8.39041 17.2899C9.41689 18.2928 10.4462 19.2928 11.4784 20.2899C11.6183 20.4252 11.8053 20.5009 11.9999 20.5009C12.1945 20.5009 12.3815 20.4252 12.5214 20.2899L15.9154 16.9899C16.3854 16.5289 16.7784 16.1399 17.0954 15.8219C18.4469 14.4703 19.2062 12.6372 19.2062 10.7259C19.2062 8.81453 18.4469 6.98146 17.0954 5.62989L17.0964 5.62789ZM12.0004 7.99889C12.3946 7.99889 12.785 8.07654 13.1492 8.2274C13.5134 8.37827 13.8444 8.5994 14.1231 8.87816C14.4019 9.15692 14.623 9.48786 14.7739 9.85208C14.9248 10.2163 15.0024 10.6067 15.0024 11.0009C15.0024 11.3951 14.9248 11.7855 14.7739 12.1497C14.623 12.5139 14.4019 12.8449 14.1231 13.1236C13.8444 13.4024 13.5134 13.6235 13.1492 13.7744C12.785 13.9252 12.3946 14.0029 12.0004 14.0029C11.2139 13.9885 10.4644 13.666 9.91318 13.1047C9.36201 12.5433 9.0532 11.7881 9.0532 11.0014C9.0532 10.2147 9.36201 9.45944 9.91318 8.89812C10.4644 8.33679 11.2139 8.01425 12.0004 7.99989V7.99889ZM12.0004 9.49889C11.8032 9.49889 11.6079 9.53774 11.4256 9.61322C11.2434 9.68871 11.0778 9.79934 10.9383 9.93882C10.7989 10.0783 10.6882 10.2439 10.6127 10.4261C10.5373 10.6083 10.4984 10.8036 10.4984 11.0009C10.4984 11.1981 10.5373 11.3935 10.6127 11.5757C10.6882 11.7579 10.7989 11.9235 10.9383 12.063C11.0778 12.2024 11.2434 12.3131 11.4256 12.3886C11.6079 12.464 11.8032 12.5029 12.0004 12.5029C12.3986 12.5029 12.7805 12.3447 13.0621 12.0631C13.3437 11.7815 13.5019 11.3996 13.5019 11.0014C13.5019 10.6032 13.3437 10.2213 13.0621 9.93967C12.7805 9.65808 12.3986 9.49989 12.0004 9.49989V9.49889Z" fill="#333333"/>
</svg>
