<svg width="32" height="32" viewBox="0 0 32 32" fill="none" xmlns="http://www.w3.org/2000/svg">
<path d="M23.5 7.66667H21V6H19.3333V7.66667H12.6667V6H11V7.66667H8.5C7.83696 7.66667 7.20107 7.93006 6.73223 8.3989C6.26339 8.86774 6 9.50363 6 10.1667V26H26V10.1667C26 9.50363 25.7366 8.86774 25.2678 8.3989C24.7989 7.93006 24.163 7.66667 23.5 7.66667ZM7.66667 10.1667C7.66667 9.94565 7.75446 9.73369 7.91074 9.57741C8.06702 9.42113 8.27899 9.33333 8.5 9.33333H23.5C23.721 9.33333 23.933 9.42113 24.0893 9.57741C24.2455 9.73369 24.3333 9.94565 24.3333 10.1667V12.6667H7.66667V10.1667ZM7.66667 24.3333V14.3333H24.3333V24.3333H7.66667Z" fill="black"/>
<path d="M20.1667 16.835H18.5V18.5016H20.1667V16.835Z" fill="black"/>
<path d="M16.8334 16.835H15.1667V18.5016H16.8334V16.835Z" fill="black"/>
<path d="M13.4999 16.835H11.8333V18.5016H13.4999V16.835Z" fill="black"/>
<path d="M20.1667 20.165H18.5V21.8317H20.1667V20.165Z" fill="black"/>
<path d="M16.8334 20.165H15.1667V21.8317H16.8334V20.165Z" fill="black"/>
<path d="M13.4999 20.165H11.8333V21.8317H13.4999V20.165Z" fill="black"/>
</svg>
