<svg width="18" height="18" viewBox="0 0 18 18" fill="none" xmlns="http://www.w3.org/2000/svg">
<path d="M6.10892 3.98023C5.9262 3.79569 5.8237 3.54649 5.8237 3.28679C5.8237 3.02709 5.9262 2.77789 6.10892 2.59335C6.19865 2.50224 6.3056 2.42988 6.42356 2.38049C6.54151 2.33111 6.66811 2.30567 6.79598 2.30567C6.92386 2.30567 7.05046 2.33111 7.16841 2.38049C7.28636 2.42988 7.39332 2.50224 7.48304 2.59335L12.9143 8.1352C13.0968 8.32016 13.1991 8.56953 13.1991 8.82935C13.1991 9.08917 13.0968 9.33854 12.9143 9.5235L7.48304 15.0654C7.39332 15.1565 7.28636 15.2288 7.16841 15.2782C7.05046 15.3276 6.92386 15.353 6.79598 15.353C6.66811 15.353 6.54151 15.3276 6.42356 15.2782C6.3056 15.2288 6.19865 15.1565 6.10892 15.0654C5.9262 14.8808 5.8237 14.6316 5.8237 14.3719C5.8237 14.1122 5.9262 13.863 6.10892 13.6785L10.5631 8.82722L6.10892 3.98023Z" fill="#333333"/>
</svg>
