<svg width="18" height="18" viewBox="0 0 18 18" fill="none" xmlns="http://www.w3.org/2000/svg">
<path d="M14.02 6.10895C14.2045 5.92623 14.4537 5.82373 14.7134 5.82373C14.9731 5.82373 15.2223 5.92623 15.4068 6.10895C15.4979 6.19868 15.5703 6.30563 15.6197 6.42359C15.6691 6.54154 15.6945 6.66814 15.6945 6.79601C15.6945 6.92389 15.6691 7.05049 15.6197 7.16844C15.5703 7.28639 15.4979 7.39335 15.4068 7.48307L9.86498 12.9143C9.68002 13.0968 9.43065 13.1991 9.17083 13.1991C8.91101 13.1991 8.66164 13.0968 8.47668 12.9143L2.93483 7.48307C2.84372 7.39335 2.77136 7.28639 2.72198 7.16844C2.67259 7.05049 2.64716 6.92389 2.64716 6.79601C2.64716 6.66814 2.67259 6.54154 2.72198 6.42359C2.77136 6.30563 2.84372 6.19868 2.93483 6.10895C3.11937 5.92623 3.36857 5.82373 3.62827 5.82373C3.88797 5.82373 4.13717 5.92623 4.32171 6.10895L9.17296 10.5631L14.02 6.10895Z" fill="#333333"/>
</svg>
