<svg width="414" height="896" viewBox="0 0 414 896" fill="none" xmlns="http://www.w3.org/2000/svg">
<rect width="414" height="896" fill="#4CA9FF"/>
<circle cx="207" cy="448" r="150" fill="#4DA9FF"/>
<path d="M176.383 526.337C190.35 549.625 223.762 549.588 237.617 526.337C242.1 516.738 249.037 493.375 260.362 474.813C276.744 447.963 290.625 436.563 293.737 430.6C307.578 406.951 290.436 377.2 263.034 377.2C254.4 377.2 243.9 383.763 206.85 384.738C175.875 384.738 159.45 377.2 150.966 377.2C123.564 377.2 106.275 406.225 120.263 430.563C136.875 452.013 142.546 456.155 153.488 474.85C165.15 492.738 170.137 514.113 176.383 526.337Z" fill="white"/>
</svg>
