<svg width="55" height="41" viewBox="0 0 55 41" fill="none" xmlns="http://www.w3.org/2000/svg">
<rect width="49.5775" height="34.0845" rx="5" fill="#EB483F"/>
<rect x="1.54932" y="1.54932" width="46.4789" height="30.9859" rx="4" fill="#F5C3C2"/>
<rect x="1.54932" y="1.54932" width="46.4789" height="30.9859" rx="4" fill="white"/>
<rect x="1.54932" y="1.54932" width="46.4789" height="30.9859" rx="4" stroke="white"/>
<rect x="2.5" y="3" width="15" height="28" rx="3" fill="#F5C3C2"/>
<rect x="19.5" y="16" width="13" height="27.5" rx="3" transform="rotate(-90 19.5 16)" fill="#F5C3C2"/>
<rect x="19.5" y="31" width="13" height="27.5" rx="3" transform="rotate(-90 19.5 31)" fill="#F5C3C2"/>
<g clip-path="url(#clip0_1301_1673)">
<rect x="41.5081" y="27.5" width="9.23122" height="7.81103" fill="#EB483F"/>
<mask id="path-7-outside-1_1301_1673" maskUnits="userSpaceOnUse" x="38.5" y="24" width="17" height="17" fill="black">
<rect fill="white" x="38.5" y="24" width="17" height="17"/>
<path d="M53.7 32.1C53.7 33.983 52.952 35.7889 51.6205 37.1205C50.2889 38.452 48.483 39.2 46.6 39.2C44.717 39.2 42.9111 38.452 41.5795 37.1205C40.248 35.7889 39.5 33.983 39.5 32.1C39.5 30.217 40.248 28.4111 41.5795 27.0795C42.9111 25.748 44.717 25 46.6 25C48.483 25 50.2889 25.748 51.6205 27.0795C52.952 28.4111 53.7 30.217 53.7 32.1ZM44.2517 29.1233C44.1684 29.04 44.0553 28.9932 43.9375 28.9932C43.8197 28.9932 43.7066 29.04 43.6233 29.1233C43.54 29.2066 43.4932 29.3197 43.4932 29.4375C43.4932 29.5553 43.54 29.6684 43.6233 29.7517L45.9725 32.1L43.6233 34.4483C43.5821 34.4896 43.5493 34.5386 43.527 34.5925C43.5047 34.6464 43.4932 34.7042 43.4932 34.7625C43.4932 34.8208 43.5047 34.8786 43.527 34.9325C43.5493 34.9864 43.5821 35.0354 43.6233 35.0767C43.7066 35.16 43.8197 35.2068 43.9375 35.2068C43.9958 35.2068 44.0536 35.1953 44.1075 35.173C44.1614 35.1507 44.2104 35.1179 44.2517 35.0767L46.6 32.7275L48.9483 35.0767C48.9896 35.1179 49.0386 35.1507 49.0925 35.173C49.1464 35.1953 49.2042 35.2068 49.2625 35.2068C49.3208 35.2068 49.3786 35.1953 49.4325 35.173C49.4864 35.1507 49.5354 35.1179 49.5767 35.0767C49.6179 35.0354 49.6507 34.9864 49.673 34.9325C49.6953 34.8786 49.7068 34.8208 49.7068 34.7625C49.7068 34.7042 49.6953 34.6464 49.673 34.5925C49.6507 34.5386 49.6179 34.4896 49.5767 34.4483L47.2275 32.1L49.5767 29.7517C49.6179 29.7104 49.6507 29.6614 49.673 29.6075C49.6953 29.5536 49.7068 29.4958 49.7068 29.4375C49.7068 29.3792 49.6953 29.3214 49.673 29.2675C49.6507 29.2136 49.6179 29.1646 49.5767 29.1233C49.5354 29.0821 49.4864 29.0493 49.4325 29.027C49.3786 29.0047 49.3208 28.9932 49.2625 28.9932C49.2042 28.9932 49.1464 29.0047 49.0925 29.027C49.0386 29.0493 48.9896 29.0821 48.9483 29.1233L46.6 31.4725L44.2517 29.1233Z"/>
</mask>
<path d="M53.7 32.1C53.7 33.983 52.952 35.7889 51.6205 37.1205C50.2889 38.452 48.483 39.2 46.6 39.2C44.717 39.2 42.9111 38.452 41.5795 37.1205C40.248 35.7889 39.5 33.983 39.5 32.1C39.5 30.217 40.248 28.4111 41.5795 27.0795C42.9111 25.748 44.717 25 46.6 25C48.483 25 50.2889 25.748 51.6205 27.0795C52.952 28.4111 53.7 30.217 53.7 32.1ZM44.2517 29.1233C44.1684 29.04 44.0553 28.9932 43.9375 28.9932C43.8197 28.9932 43.7066 29.04 43.6233 29.1233C43.54 29.2066 43.4932 29.3197 43.4932 29.4375C43.4932 29.5553 43.54 29.6684 43.6233 29.7517L45.9725 32.1L43.6233 34.4483C43.5821 34.4896 43.5493 34.5386 43.527 34.5925C43.5047 34.6464 43.4932 34.7042 43.4932 34.7625C43.4932 34.8208 43.5047 34.8786 43.527 34.9325C43.5493 34.9864 43.5821 35.0354 43.6233 35.0767C43.7066 35.16 43.8197 35.2068 43.9375 35.2068C43.9958 35.2068 44.0536 35.1953 44.1075 35.173C44.1614 35.1507 44.2104 35.1179 44.2517 35.0767L46.6 32.7275L48.9483 35.0767C48.9896 35.1179 49.0386 35.1507 49.0925 35.173C49.1464 35.1953 49.2042 35.2068 49.2625 35.2068C49.3208 35.2068 49.3786 35.1953 49.4325 35.173C49.4864 35.1507 49.5354 35.1179 49.5767 35.0767C49.6179 35.0354 49.6507 34.9864 49.673 34.9325C49.6953 34.8786 49.7068 34.8208 49.7068 34.7625C49.7068 34.7042 49.6953 34.6464 49.673 34.5925C49.6507 34.5386 49.6179 34.4896 49.5767 34.4483L47.2275 32.1L49.5767 29.7517C49.6179 29.7104 49.6507 29.6614 49.673 29.6075C49.6953 29.5536 49.7068 29.4958 49.7068 29.4375C49.7068 29.3792 49.6953 29.3214 49.673 29.2675C49.6507 29.2136 49.6179 29.1646 49.5767 29.1233C49.5354 29.0821 49.4864 29.0493 49.4325 29.027C49.3786 29.0047 49.3208 28.9932 49.2625 28.9932C49.2042 28.9932 49.1464 29.0047 49.0925 29.027C49.0386 29.0493 48.9896 29.0821 48.9483 29.1233L46.6 31.4725L44.2517 29.1233Z" fill="white"/>
<path d="M46.6 39.2V40.2V39.2ZM39.5 32.1H38.5H39.5ZM46.6 25V24V25ZM44.2517 29.1233L44.9589 28.4164L44.9588 28.4162L44.2517 29.1233ZM43.6233 29.7517L42.9162 30.4588L42.9164 30.4589L43.6233 29.7517ZM45.9725 32.1L46.6795 32.8072L47.387 32.1L46.6795 31.3928L45.9725 32.1ZM43.6233 34.4483L42.9164 33.7411L42.9162 33.7412L43.6233 34.4483ZM43.6233 35.0767L42.9162 35.7838L43.6233 35.0767ZM43.9375 35.2068V36.2068V35.2068ZM44.2517 35.0767L44.9588 35.7838L44.9589 35.7836L44.2517 35.0767ZM46.6 32.7275L47.3072 32.0205L46.6 31.313L45.8928 32.0205L46.6 32.7275ZM48.9483 35.0767L48.2411 35.7836L48.2412 35.7838L48.9483 35.0767ZM49.2625 35.2068V34.2068V35.2068ZM49.7068 34.7625H48.7068H49.7068ZM49.5767 34.4483L50.2838 33.7412L50.2836 33.7411L49.5767 34.4483ZM47.2275 32.1L46.5205 31.3928L45.813 32.1L46.5205 32.8072L47.2275 32.1ZM49.5767 29.7517L50.2836 30.4589L50.2838 30.4588L49.5767 29.7517ZM49.7068 29.4375H48.7068H49.7068ZM48.9483 29.1233L48.2412 28.4162L48.2411 28.4164L48.9483 29.1233ZM46.6 31.4725L45.8928 32.1795L46.6 32.887L47.3072 32.1795L46.6 31.4725ZM52.7 32.1C52.7 33.7178 52.0573 35.2694 50.9134 36.4134L52.3276 37.8276C53.8466 36.3085 54.7 34.2483 54.7 32.1H52.7ZM50.9134 36.4134C49.7694 37.5573 48.2178 38.2 46.6 38.2V40.2C48.7483 40.2 50.8085 39.3466 52.3276 37.8276L50.9134 36.4134ZM46.6 38.2C44.9822 38.2 43.4306 37.5573 42.2866 36.4134L40.8724 37.8276C42.3915 39.3466 44.4517 40.2 46.6 40.2V38.2ZM42.2866 36.4134C41.1427 35.2694 40.5 33.7178 40.5 32.1H38.5C38.5 34.2483 39.3534 36.3085 40.8724 37.8276L42.2866 36.4134ZM40.5 32.1C40.5 30.4822 41.1427 28.9306 42.2866 27.7866L40.8724 26.3724C39.3534 27.8915 38.5 29.9517 38.5 32.1H40.5ZM42.2866 27.7866C43.4306 26.6427 44.9822 26 46.6 26V24C44.4517 24 42.3915 24.8534 40.8724 26.3724L42.2866 27.7866ZM46.6 26C48.2178 26 49.7694 26.6427 50.9134 27.7866L52.3276 26.3724C50.8085 24.8534 48.7483 24 46.6 24V26ZM50.9134 27.7866C52.0573 28.9306 52.7 30.4822 52.7 32.1H54.7C54.7 29.9517 53.8466 27.8915 52.3276 26.3724L50.9134 27.7866ZM44.9588 28.4162C44.6879 28.1454 44.3206 27.9932 43.9375 27.9932V29.9932C43.7901 29.9932 43.6488 29.9346 43.5446 29.8304L44.9588 28.4162ZM43.9375 27.9932C43.5544 27.9932 43.1871 28.1454 42.9162 28.4162L44.3304 29.8304C44.2262 29.9346 44.0849 29.9932 43.9375 29.9932V27.9932ZM42.9162 28.4162C42.6454 28.6871 42.4932 29.0544 42.4932 29.4375H44.4932C44.4932 29.5849 44.4346 29.7262 44.3304 29.8304L42.9162 28.4162ZM42.4932 29.4375C42.4932 29.8206 42.6454 30.1879 42.9162 30.4588L44.3304 29.0446C44.4346 29.1488 44.4932 29.2901 44.4932 29.4375H42.4932ZM42.9164 30.4589L45.2656 32.8072L46.6795 31.3928L44.3303 29.0444L42.9164 30.4589ZM45.2656 31.3928L42.9164 33.7411L44.3303 35.1556L46.6795 32.8072L45.2656 31.3928ZM42.9162 33.7412C42.7821 33.8753 42.6757 34.0346 42.6031 34.2098L44.4509 34.9752C44.423 35.0426 44.382 35.1038 44.3304 35.1554L42.9162 33.7412ZM42.6031 34.2098C42.5305 34.385 42.4932 34.5728 42.4932 34.7625H44.4932C44.4932 34.8355 44.4788 34.9077 44.4509 34.9752L42.6031 34.2098ZM42.4932 34.7625C42.4932 34.9522 42.5305 35.14 42.6031 35.3152L44.4509 34.5498C44.4788 34.6173 44.4932 34.6895 44.4932 34.7625H42.4932ZM42.6031 35.3152C42.6757 35.4904 42.7821 35.6497 42.9162 35.7838L44.3304 34.3696C44.382 34.4212 44.423 34.4824 44.4509 34.5498L42.6031 35.3152ZM42.9162 35.7838C43.1871 36.0546 43.5544 36.2068 43.9375 36.2068V34.2068C44.0849 34.2068 44.2262 34.2654 44.3304 34.3696L42.9162 35.7838ZM43.9375 36.2068C44.1272 36.2068 44.315 36.1695 44.4902 36.0969L43.7248 34.2491C43.7923 34.2212 43.8645 34.2068 43.9375 34.2068V36.2068ZM44.4902 36.0969C44.6654 36.0243 44.8247 35.9179 44.9588 35.7838L43.5446 34.3696C43.5962 34.318 43.6574 34.277 43.7248 34.2491L44.4902 36.0969ZM44.9589 35.7836L47.3072 33.4344L45.8928 32.0205L43.5444 34.3697L44.9589 35.7836ZM45.8928 33.4344L48.2411 35.7836L49.6556 34.3697L47.3072 32.0205L45.8928 33.4344ZM48.2412 35.7838C48.3753 35.9179 48.5346 36.0243 48.7098 36.0969L49.4752 34.2491C49.5426 34.277 49.6038 34.318 49.6554 34.3696L48.2412 35.7838ZM48.7098 36.0969C48.885 36.1695 49.0728 36.2068 49.2625 36.2068V34.2068C49.3355 34.2068 49.4077 34.2212 49.4752 34.2491L48.7098 36.0969ZM49.2625 36.2068C49.4522 36.2068 49.64 36.1695 49.8152 36.0969L49.0498 34.2491C49.1173 34.2212 49.1895 34.2068 49.2625 34.2068V36.2068ZM49.8152 36.0969C49.9904 36.0243 50.1497 35.9179 50.2838 35.7838L48.8696 34.3696C48.9212 34.318 48.9824 34.277 49.0498 34.2491L49.8152 36.0969ZM50.2838 35.7838C50.4179 35.6497 50.5243 35.4904 50.5969 35.3152L48.7491 34.5498C48.777 34.4824 48.818 34.4212 48.8696 34.3696L50.2838 35.7838ZM50.5969 35.3152C50.6695 35.14 50.7068 34.9522 50.7068 34.7625H48.7068C48.7068 34.6895 48.7212 34.6173 48.7491 34.5498L50.5969 35.3152ZM50.7068 34.7625C50.7068 34.5728 50.6695 34.385 50.5969 34.2098L48.7491 34.9752C48.7212 34.9077 48.7068 34.8355 48.7068 34.7625H50.7068ZM50.5969 34.2098C50.5243 34.0346 50.4179 33.8753 50.2838 33.7412L48.8696 35.1554C48.818 35.1038 48.777 35.0426 48.7491 34.9752L50.5969 34.2098ZM50.2836 33.7411L47.9344 31.3928L46.5205 32.8072L48.8697 35.1556L50.2836 33.7411ZM47.9344 32.8072L50.2836 30.4589L48.8697 29.0444L46.5205 31.3928L47.9344 32.8072ZM50.2838 30.4588C50.4179 30.3247 50.5243 30.1654 50.5969 29.9902L48.7491 29.2248C48.777 29.1574 48.818 29.0962 48.8696 29.0446L50.2838 30.4588ZM50.5969 29.9902C50.6695 29.815 50.7068 29.6272 50.7068 29.4375H48.7068C48.7068 29.3645 48.7212 29.2923 48.7491 29.2248L50.5969 29.9902ZM50.7068 29.4375C50.7068 29.2478 50.6695 29.06 50.5969 28.8848L48.7491 29.6502C48.7212 29.5827 48.7068 29.5105 48.7068 29.4375H50.7068ZM50.5969 28.8848C50.5243 28.7096 50.4179 28.5503 50.2838 28.4162L48.8696 29.8304C48.818 29.7788 48.777 29.7176 48.7491 29.6502L50.5969 28.8848ZM50.2838 28.4162C50.1497 28.2821 49.9904 28.1757 49.8152 28.1031L49.0498 29.9509C48.9824 29.923 48.9212 29.882 48.8696 29.8304L50.2838 28.4162ZM49.8152 28.1031C49.64 28.0305 49.4522 27.9932 49.2625 27.9932V29.9932C49.1895 29.9932 49.1173 29.9788 49.0498 29.9509L49.8152 28.1031ZM49.2625 27.9932C49.0728 27.9932 48.885 28.0305 48.7098 28.1031L49.4752 29.9509C49.4077 29.9788 49.3355 29.9932 49.2625 29.9932V27.9932ZM48.7098 28.1031C48.5346 28.1757 48.3753 28.2821 48.2412 28.4162L49.6554 29.8304C49.6038 29.882 49.5426 29.923 49.4752 29.9509L48.7098 28.1031ZM48.2411 28.4164L45.8928 30.7656L47.3072 32.1795L49.6556 29.8303L48.2411 28.4164ZM47.3072 30.7656L44.9589 28.4164L43.5444 29.8303L45.8928 32.1795L47.3072 30.7656Z" fill="#EB483F" mask="url(#path-7-outside-1_1301_1673)"/>
</g>
<defs>
<clipPath id="clip0_1301_1673">
<rect width="17.0423" height="17.0423" fill="white" transform="translate(37.9575 23.2393)"/>
</clipPath>
</defs>
</svg>
