<svg width="56" height="41" viewBox="0 0 56 41" fill="none" xmlns="http://www.w3.org/2000/svg">
<rect x="0.5" width="49.5775" height="34.0845" rx="5" fill="#7ABB4D"/>
<rect x="2.04932" y="1.54932" width="46.4789" height="30.9859" rx="4" fill="#C9E4B5" stroke="white"/>
<path d="M37.449 16.6301C36.3911 11.8478 34.8221 8.79715 32.3074 8.05376C31.8203 7.91169 31.3153 7.84081 30.8079 7.84334C29.2619 7.84334 28.0419 8.76323 25.2886 8.76323C22.5352 8.76323 21.3129 7.84334 19.7692 7.84334C19.2407 7.8406 18.7144 7.91142 18.2054 8.05376C15.6872 8.79715 14.1314 11.8506 13.0615 16.6301C11.9691 21.5118 12.1669 25.3691 14.3022 26.1096C15.797 26.627 17.1337 25.5571 18.3997 23.9823C19.8371 22.1885 21.6073 21.6366 25.2886 21.6366C28.9699 21.6366 30.6711 22.1885 32.1107 23.9823C33.3756 25.5582 34.7618 26.6149 36.2169 26.1188C38.5753 25.3133 38.542 21.5693 37.449 16.6301Z" fill="white" stroke="#7ABB4D" stroke-width="2" stroke-miterlimit="10"/>
<path d="M27.3584 16.352C27.9934 16.352 28.5082 15.8372 28.5082 15.2021C28.5082 14.5671 27.9934 14.0522 27.3584 14.0522C26.7233 14.0522 26.2085 14.5671 26.2085 15.2021C26.2085 15.8372 26.7233 16.352 27.3584 16.352Z" fill="#7ABB4D"/>
<path d="M29.8881 18.8818C29.6606 18.8818 29.4382 18.8143 29.249 18.6878C29.0599 18.5613 28.9125 18.3815 28.8255 18.1713C28.7386 17.961 28.716 17.7296 28.7606 17.5065C28.8052 17.2834 28.915 17.0785 29.0761 16.9178C29.2372 16.7571 29.4423 16.6478 29.6656 16.6038C29.8888 16.5597 30.1201 16.5829 30.3302 16.6704C30.5402 16.7579 30.7196 16.9057 30.8456 17.0952C30.9716 17.2846 31.0386 17.5072 31.038 17.7348C31.0373 18.0392 30.9158 18.331 30.7002 18.546C30.4847 18.761 30.1926 18.8818 29.8881 18.8818V18.8818Z" fill="#7ABB4D"/>
<path d="M29.8881 13.8222C30.5232 13.8222 31.038 13.3074 31.038 12.6723C31.038 12.0373 30.5232 11.5225 29.8881 11.5225C29.2531 11.5225 28.7383 12.0373 28.7383 12.6723C28.7383 13.3074 29.2531 13.8222 29.8881 13.8222Z" fill="#7ABB4D"/>
<path d="M32.4177 16.352C33.0527 16.352 33.5676 15.8372 33.5676 15.2021C33.5676 14.5671 33.0527 14.0522 32.4177 14.0522C31.7826 14.0522 31.2678 14.5671 31.2678 15.2021C31.2678 15.8372 31.7826 16.352 32.4177 16.352Z" fill="#7ABB4D"/>
<path d="M19.7692 12.4424V17.9617M22.5289 15.2021H17.0095" stroke="#7ABB4D" stroke-width="2" stroke-linecap="round" stroke-linejoin="round"/>
<g clip-path="url(#clip0_1305_479)">
<rect x="42.0083" y="27.5" width="9.23122" height="7.81103" fill="#7ABB4D"/>
<path d="M45.6312 33.3923L45.9847 33.7459L46.3383 33.3923L49.8533 29.8774C49.8805 29.8501 49.9146 29.8285 49.9968 29.8285C50.0789 29.8285 50.113 29.8501 50.1403 29.8774C50.1948 29.9319 50.2069 29.9728 50.2069 30.0209C50.2069 30.0819 50.1915 30.1132 50.158 30.1466L46.1282 34.1764C46.101 34.2037 46.0669 34.2252 45.9847 34.2252C45.9026 34.2252 45.8685 34.2037 45.8412 34.1764L43.8175 32.1527C43.7902 32.1254 43.7686 32.0913 43.7686 32.0091C43.7686 31.927 43.7902 31.8929 43.8175 31.8656C43.872 31.8111 43.9129 31.799 43.961 31.799C44.022 31.799 44.0533 31.8144 44.0867 31.8479L45.6312 33.3923ZM44.0115 24.7594L44.0113 24.7595C43.0918 25.1565 42.287 25.6976 41.6014 26.3831C40.9158 27.0688 40.3749 27.8737 39.9784 28.7932C39.5772 29.7225 39.3779 30.7133 39.3779 31.7606C39.3779 32.808 39.5772 33.7989 39.9784 34.7282C40.375 35.6477 40.9158 36.4525 41.6014 37.1381C42.287 37.8237 43.0919 38.3646 44.0115 38.7611C44.9407 39.1623 45.9315 39.3615 46.9789 39.3615C48.0263 39.3615 49.0172 39.1623 49.9464 38.761C50.8659 38.3645 51.6708 37.8236 52.3563 37.1381C53.0419 36.4525 53.5827 35.6477 53.9793 34.7282C54.3805 33.7989 54.5798 32.808 54.5798 31.7606C54.5798 30.7133 54.3806 29.7225 53.9794 28.7932C53.5828 27.8737 53.042 27.0688 52.3563 26.3831C51.6708 25.6976 50.8659 25.1565 49.9464 24.7595L49.9462 24.7594C49.017 24.3587 48.0262 24.1597 46.9789 24.1597C45.9315 24.1597 44.9407 24.3587 44.0115 24.7594Z" fill="white" stroke="#7ABB4D"/>
</g>
<defs>
<clipPath id="clip0_1305_479">
<rect width="17.0423" height="17.0423" fill="white" transform="translate(38.4578 23.2393)"/>
</clipPath>
</defs>
</svg>
