<svg width="55" height="41" viewBox="0 0 55 41" fill="none" xmlns="http://www.w3.org/2000/svg">
<rect width="49.5775" height="34.0845" rx="5" fill="#EB483F"/>
<rect x="1.54932" y="1.54932" width="46.4789" height="30.9859" rx="4" fill="#F5C3C2"/>
<rect x="1.54932" y="1.54932" width="46.4789" height="30.9859" rx="4" fill="white"/>
<rect x="1.54932" y="1.54932" width="46.4789" height="30.9859" rx="4" stroke="white"/>
<rect x="3.5" y="6" width="3" height="43" rx="1.5" transform="rotate(-90 3.5 6)" fill="#F5C3C2"/>
<rect x="3.5" y="10" width="3" height="43" rx="1.5" transform="rotate(-90 3.5 10)" fill="#F5C3C2"/>
<rect x="3.5" y="31" width="3" height="33" rx="1.5" transform="rotate(-90 3.5 31)" fill="#F5C3C2"/>
<rect x="3.5" y="27" width="3" height="31" rx="1.5" transform="rotate(-90 3.5 27)" fill="#F5C3C2"/>
<path d="M7.49061 21.604C7.41061 21.604 7.34261 21.58 7.28661 21.532C7.23861 21.476 7.21461 21.408 7.21461 21.328V18.832H4.75461C4.67461 18.832 4.60661 18.808 4.55061 18.76C4.50261 18.704 4.47861 18.636 4.47861 18.556V18.172C4.47861 18.092 4.50261 18.028 4.55061 17.98C4.60661 17.924 4.67461 17.896 4.75461 17.896H7.21461V15.472C7.21461 15.392 7.23861 15.328 7.28661 15.28C7.34261 15.224 7.41061 15.196 7.49061 15.196H7.91061C7.99061 15.196 8.05461 15.224 8.10261 15.28C8.15861 15.328 8.18661 15.392 8.18661 15.472V17.896H10.6586C10.7386 17.896 10.8026 17.924 10.8506 17.98C10.9066 18.028 10.9346 18.092 10.9346 18.172V18.556C10.9346 18.636 10.9066 18.704 10.8506 18.76C10.8026 18.808 10.7386 18.832 10.6586 18.832H8.18661V21.328C8.18661 21.408 8.15861 21.476 8.10261 21.532C8.05461 21.58 7.99061 21.604 7.91061 21.604H7.49061ZM12.5946 22C12.5226 22 12.4626 21.976 12.4146 21.928C12.3746 21.872 12.3546 21.808 12.3546 21.736C12.3546 21.712 12.3626 21.676 12.3786 21.628L15.3666 14.644H11.4306C11.3506 14.644 11.2826 14.62 11.2266 14.572C11.1786 14.516 11.1546 14.448 11.1546 14.368V13.888C11.1546 13.8 11.1786 13.732 11.2266 13.684C11.2826 13.628 11.3506 13.6 11.4306 13.6H16.3506C16.4386 13.6 16.5066 13.628 16.5546 13.684C16.6106 13.732 16.6386 13.8 16.6386 13.888V14.332C16.6386 14.436 16.6306 14.52 16.6146 14.584C16.5986 14.648 16.5746 14.72 16.5426 14.8L13.5786 21.7C13.5546 21.764 13.5146 21.832 13.4586 21.904C13.4106 21.968 13.3386 22 13.2426 22H12.5946ZM18.711 17.056L18.183 16.66C18.127 16.62 18.095 16.564 18.087 16.492C18.079 16.412 18.091 16.348 18.123 16.3C18.123 16.292 18.147 16.264 18.195 16.216L19.059 15.424L17.883 15.292C17.851 15.284 17.827 15.28 17.811 15.28C17.803 15.272 17.795 15.268 17.787 15.268C17.731 15.252 17.683 15.212 17.643 15.148C17.611 15.076 17.603 15.004 17.619 14.932L17.835 14.308C17.851 14.244 17.895 14.196 17.967 14.164C18.039 14.132 18.103 14.124 18.159 14.14C18.167 14.14 18.199 14.152 18.255 14.176L19.287 14.764L19.047 13.6C19.039 13.568 19.035 13.548 19.035 13.54C19.035 13.524 19.035 13.512 19.035 13.504C19.035 13.44 19.059 13.38 19.107 13.324C19.163 13.268 19.227 13.24 19.299 13.24H19.959C20.031 13.24 20.091 13.268 20.139 13.324C20.195 13.38 20.223 13.44 20.223 13.504C20.223 13.512 20.223 13.524 20.223 13.54C20.223 13.548 20.219 13.568 20.211 13.6L19.971 14.764L21.015 14.176C21.071 14.152 21.103 14.14 21.111 14.14C21.175 14.124 21.239 14.132 21.303 14.164C21.375 14.196 21.419 14.244 21.435 14.308L21.651 14.932C21.667 15.004 21.655 15.076 21.615 15.148C21.583 15.212 21.535 15.252 21.471 15.268C21.463 15.268 21.451 15.272 21.435 15.28C21.427 15.28 21.411 15.284 21.387 15.292L20.199 15.424L21.075 16.216C21.123 16.264 21.147 16.292 21.147 16.3C21.187 16.348 21.203 16.412 21.195 16.492C21.187 16.564 21.151 16.62 21.087 16.66L20.559 17.056C20.495 17.088 20.427 17.1 20.355 17.092C20.283 17.084 20.227 17.052 20.187 16.996C20.187 16.988 20.183 16.98 20.175 16.972C20.167 16.964 20.155 16.944 20.139 16.912L19.635 15.82L19.131 16.912C19.123 16.944 19.111 16.964 19.095 16.972C19.087 16.98 19.083 16.988 19.083 16.996C19.051 17.052 18.995 17.084 18.915 17.092C18.843 17.1 18.775 17.088 18.711 17.056ZM24.0665 17.056L23.5385 16.66C23.4825 16.62 23.4505 16.564 23.4425 16.492C23.4345 16.412 23.4465 16.348 23.4785 16.3C23.4785 16.292 23.5025 16.264 23.5505 16.216L24.4145 15.424L23.2385 15.292C23.2065 15.284 23.1825 15.28 23.1665 15.28C23.1585 15.272 23.1505 15.268 23.1425 15.268C23.0865 15.252 23.0385 15.212 22.9985 15.148C22.9665 15.076 22.9585 15.004 22.9745 14.932L23.1905 14.308C23.2065 14.244 23.2505 14.196 23.3225 14.164C23.3945 14.132 23.4585 14.124 23.5145 14.14C23.5225 14.14 23.5545 14.152 23.6105 14.176L24.6425 14.764L24.4025 13.6C24.3945 13.568 24.3905 13.548 24.3905 13.54C24.3905 13.524 24.3905 13.512 24.3905 13.504C24.3905 13.44 24.4145 13.38 24.4625 13.324C24.5185 13.268 24.5825 13.24 24.6545 13.24H25.3145C25.3865 13.24 25.4465 13.268 25.4945 13.324C25.5505 13.38 25.5785 13.44 25.5785 13.504C25.5785 13.512 25.5785 13.524 25.5785 13.54C25.5785 13.548 25.5745 13.568 25.5665 13.6L25.3265 14.764L26.3705 14.176C26.4265 14.152 26.4585 14.14 26.4665 14.14C26.5305 14.124 26.5945 14.132 26.6585 14.164C26.7305 14.196 26.7745 14.244 26.7905 14.308L27.0065 14.932C27.0225 15.004 27.0105 15.076 26.9705 15.148C26.9385 15.212 26.8905 15.252 26.8265 15.268C26.8185 15.268 26.8065 15.272 26.7905 15.28C26.7825 15.28 26.7665 15.284 26.7425 15.292L25.5545 15.424L26.4305 16.216C26.4785 16.264 26.5025 16.292 26.5025 16.3C26.5425 16.348 26.5585 16.412 26.5505 16.492C26.5425 16.564 26.5065 16.62 26.4425 16.66L25.9145 17.056C25.8505 17.088 25.7825 17.1 25.7105 17.092C25.6385 17.084 25.5825 17.052 25.5425 16.996C25.5425 16.988 25.5385 16.98 25.5305 16.972C25.5225 16.964 25.5105 16.944 25.4945 16.912L24.9905 15.82L24.4865 16.912C24.4785 16.944 24.4665 16.964 24.4505 16.972C24.4425 16.98 24.4385 16.988 24.4385 16.996C24.4065 17.052 24.3505 17.084 24.2705 17.092C24.1985 17.1 24.1305 17.088 24.0665 17.056ZM29.4219 17.056L28.8939 16.66C28.8379 16.62 28.8059 16.564 28.7979 16.492C28.7899 16.412 28.8019 16.348 28.8339 16.3C28.8339 16.292 28.8579 16.264 28.9059 16.216L29.7699 15.424L28.5939 15.292C28.5619 15.284 28.5379 15.28 28.5219 15.28C28.5139 15.272 28.5059 15.268 28.4979 15.268C28.4419 15.252 28.3939 15.212 28.3539 15.148C28.3219 15.076 28.3139 15.004 28.3299 14.932L28.5459 14.308C28.5619 14.244 28.6059 14.196 28.6779 14.164C28.7499 14.132 28.8139 14.124 28.8699 14.14C28.8779 14.14 28.9099 14.152 28.9659 14.176L29.9979 14.764L29.7579 13.6C29.7499 13.568 29.7459 13.548 29.7459 13.54C29.7459 13.524 29.7459 13.512 29.7459 13.504C29.7459 13.44 29.7699 13.38 29.8179 13.324C29.8739 13.268 29.9379 13.24 30.0099 13.24H30.6699C30.7419 13.24 30.8019 13.268 30.8499 13.324C30.9059 13.38 30.9339 13.44 30.9339 13.504C30.9339 13.512 30.9339 13.524 30.9339 13.54C30.9339 13.548 30.9299 13.568 30.9219 13.6L30.6819 14.764L31.7259 14.176C31.7819 14.152 31.8139 14.14 31.8219 14.14C31.8859 14.124 31.9499 14.132 32.0139 14.164C32.0859 14.196 32.1299 14.244 32.1459 14.308L32.3619 14.932C32.3779 15.004 32.3659 15.076 32.3259 15.148C32.2939 15.212 32.2459 15.252 32.1819 15.268C32.1739 15.268 32.1619 15.272 32.1459 15.28C32.1379 15.28 32.1219 15.284 32.0979 15.292L30.9099 15.424L31.7859 16.216C31.8339 16.264 31.8579 16.292 31.8579 16.3C31.8979 16.348 31.9139 16.412 31.9059 16.492C31.8979 16.564 31.8619 16.62 31.7979 16.66L31.2699 17.056C31.2059 17.088 31.1379 17.1 31.0659 17.092C30.9939 17.084 30.9379 17.052 30.8979 16.996C30.8979 16.988 30.8939 16.98 30.8859 16.972C30.8779 16.964 30.8659 16.944 30.8499 16.912L30.3459 15.82L29.8419 16.912C29.8339 16.944 29.8219 16.964 29.8059 16.972C29.7979 16.98 29.7939 16.988 29.7939 16.996C29.7619 17.052 29.7059 17.084 29.6259 17.092C29.5539 17.1 29.4859 17.088 29.4219 17.056Z" fill="#EB483F"/>
<g clip-path="url(#clip0_1305_493)">
<rect x="41.5081" y="27.5" width="9.23122" height="7.81103" fill="#EB483F"/>
<path d="M49.2626 34.7626L49.2626 34.7625L49.2626 34.7626ZM49.2626 34.7625L49.2627 34.7624L49.2626 34.7625ZM49.2626 29.4375L49.2626 29.4374L49.2626 29.4375ZM49.2625 29.4374L49.2625 29.4374L49.2625 29.4374ZM49.2624 29.4373L49.2232 29.3981L49.2232 29.3981L48.9483 29.1233L49.2624 29.4373ZM43.9374 34.7626L43.9375 34.7626L43.9374 34.7626ZM43.9376 34.7627L43.938 34.7632L43.9376 34.7627ZM51.974 37.474C53.3993 36.0487 54.2 34.1156 54.2 32.1C54.2 30.0844 53.3993 28.1513 51.974 26.726C50.5487 25.3007 48.6156 24.5 46.6 24.5C44.5844 24.5 42.6513 25.3007 41.226 26.726C39.8007 28.1513 39 30.0844 39 32.1C39 34.1156 39.8007 36.0487 41.226 37.474C42.6513 38.8993 44.5844 39.7 46.6 39.7C48.6156 39.7 50.5487 38.8993 51.974 37.474Z" fill="white" stroke="#EB483F"/>
</g>
<defs>
<clipPath id="clip0_1305_493">
<rect width="17.0423" height="17.0423" fill="white" transform="translate(37.9575 23.2393)"/>
</clipPath>
</defs>
</svg>
