<svg width="40" height="40" viewBox="0 0 40 40" fill="none" xmlns="http://www.w3.org/2000/svg">
<circle cx="19.1663" cy="19.1666" r="15.8333" stroke="#333333" stroke-width="2"/>
<path d="M30.833 30.8333L36.6663 36.6666" stroke="#333333" stroke-width="2" stroke-linecap="round"/>
<path d="M16.0964 26.5898C17.3379 28.6599 20.3079 28.6566 21.5394 26.5898C21.9379 25.7366 22.5545 23.6599 23.5612 22.0099C25.0173 19.6233 26.2512 18.6099 26.5279 18.0799C27.7582 15.9778 26.2344 13.3333 23.7987 13.3333C23.0312 13.3333 22.0979 13.9166 18.8046 14.0033C16.0512 14.0033 14.5912 13.3333 13.8371 13.3333C11.4014 13.3333 9.86454 15.9133 11.1079 18.0766C12.5846 19.9833 13.0887 20.3515 14.0612 22.0133C15.0979 23.6033 15.5412 25.5033 16.0964 26.5898Z" fill="#333333"/>
</svg>
