<svg width="234" height="180" viewBox="0 0 234 180" fill="none" xmlns="http://www.w3.org/2000/svg">
<path d="M12.0793 11.1372L11.3684 11.8204V21.3854V30.9219H13.6433H15.9182V22.9511V14.9803H23.8804H31.8425V12.7029V10.4256H22.3164H12.7618L12.0793 11.1372Z" fill="#181817"/>
<path d="M202.175 12.698V14.9754H210.137H218.1V22.9462V30.917H220.375H222.649V21.3805V11.8156L221.939 11.1324L221.256 10.4207H211.701H202.175V12.698Z" fill="#181817"/>
<mask id="path-3-inside-1_449_1377" fill="white">
<path d="M96.5354 23.3437C88.9713 24.4254 81.066 28.7524 76.3172 34.4174C73.2745 38.0042 71.938 41.1926 71.938 44.8079C71.938 47.4553 72.5636 49.3342 75.2082 54.6291L77.6252 59.4685H76.6015C74.6963 59.4685 73.2745 60.0948 71.7958 61.6035C68.8953 64.4787 68.8953 68.1225 71.7958 70.9977C73.3882 72.6203 74.6963 73.1327 77.1703 73.1327H78.7627V74.7553C78.7627 77.1466 79.7011 81.3313 80.8101 83.8648C82.2888 87.2524 83.6822 89.2167 87.0661 92.5189L90.1372 95.5364V99.4079V103.279L89.0851 103.564C76.8859 106.781 66.137 109.741 64.6867 110.282C55.5871 113.698 48.3643 120.303 44.042 129.071C40.9424 135.447 40.0894 139.774 40.0894 149.51V156.001L40.8003 156.684L41.4827 157.396H101.512H161.541L162.28 156.655L162.991 155.944L162.849 148.201C162.735 142.45 162.593 139.917 162.223 138.323C159.294 125.085 150.593 114.894 138.28 110.254C136.83 109.713 113.54 103.308 113 103.308C112.943 103.308 112.886 101.543 112.886 99.3794V95.4794L115.588 92.9743C117.066 91.5794 118.858 89.6437 119.569 88.6758C122.213 84.9466 123.863 80.3064 124.175 75.6094L124.346 73.1327H125.967C128.384 73.1327 130.033 72.4495 131.455 70.8553C134.014 68.0086 134.014 64.5926 131.455 61.7459C130.175 60.3225 128.412 59.4685 126.763 59.4685H125.938L126.962 57.6751C130.346 51.7823 131.256 49.1064 131 45.5196C130.687 40.9648 128.64 37.0648 124.261 32.7094C117.009 25.4218 106.545 21.8918 96.5354 23.3437ZM107.825 28.4108C112.915 29.7488 117.18 32.14 120.877 35.8407C122.213 37.1787 123.806 38.9721 124.374 39.8261C125.569 41.6196 126.536 44.4663 126.536 46.2028C126.536 47.9678 125.796 50.5013 124.716 52.4371L123.749 54.1167L123.294 52.6933C122.611 50.7006 120.934 48.224 119.114 46.4875C117.237 44.7225 111.521 41.2495 110.498 41.2495C109.986 41.2495 109.104 41.8473 107.512 43.3276C104.071 46.4875 100.289 48.0532 96.0235 48.0816C91.2747 48.0816 87.123 49.7612 81.6632 53.832C80.9239 54.4013 80.3551 54.6291 80.1845 54.4583C80.0423 54.3159 79.1892 52.6079 78.2793 50.6437C76.6868 47.1707 76.63 47.0283 76.63 44.6656C76.63 41.3634 77.4546 39.7407 80.8954 36.2393C85.4168 31.6276 90.7344 28.8948 97.1041 27.8415C99.4643 27.4714 105.379 27.7845 107.825 28.4108ZM114.536 48.594C116.355 49.7896 117.749 51.4123 118.773 53.6612L119.569 55.3407L119.654 65.5605C119.739 74.1291 119.683 76.1502 119.284 78.086C118.716 80.8473 117.152 84.3203 115.389 86.6546C113.967 88.505 108.507 93.3159 106.431 94.54C104.526 95.6218 101.938 96.0773 99.7202 95.6218C97.2747 95.1378 96.251 94.54 92.8955 91.6648C87.5779 87.0816 85.6727 84.5196 84.1372 79.8225C83.5116 77.9437 83.4831 77.3459 83.3694 68.094L83.2841 58.3583L85.6158 56.6218C86.9239 55.6539 88.4595 54.6291 89.0851 54.3159C90.7628 53.4619 94.2889 52.6364 96.3079 52.6364C100.63 52.6364 105.919 50.7006 109.332 47.8539L111.038 46.4305L112.033 47.0283C112.573 47.3415 113.711 48.0532 114.536 48.594ZM78.7627 66.3006V68.578H77.1987C75.2935 68.578 74.2129 67.7524 74.2129 66.3006C74.2129 64.8488 75.2935 64.0232 77.1987 64.0232H78.7627V66.3006ZM128.1 64.7349C128.555 65.1619 128.811 65.7597 128.811 66.3006C128.811 67.7524 127.73 68.578 125.825 68.578H124.261V66.3006V64.0232H125.825C127.133 64.0232 127.531 64.1371 128.1 64.7349ZM101.512 100.29C104.043 100.29 104.81 100.177 106.431 99.5502L108.336 98.8101V101.201V103.593L104.924 105.301L101.512 107.009L98.0994 105.301L94.687 103.593V101.201V98.8101L96.6207 99.5502C98.2131 100.177 98.9809 100.29 101.512 100.29ZM91.7865 108.062C91.7012 108.347 91.2747 110.453 90.8481 112.759L90.0235 116.944L92.2984 120.36L94.5733 123.804L92.5259 138.266C91.36 146.208 90.45 152.727 90.4216 152.755C90.4216 152.812 85.2462 152.841 78.9049 152.841H67.3882V142.593V132.344H65.1133H62.8384V142.593V152.841H53.7103H44.5823L44.7245 146.777C44.8667 140.144 45.2932 137.782 47.17 133.056C50.3833 125.085 57.0374 118.367 65.1702 114.979C66.8763 114.268 90.5069 107.692 91.6728 107.606C91.7865 107.578 91.8434 107.806 91.7865 108.062ZM123.664 110.852C131.256 112.873 136.886 114.552 138.45 115.236C145.332 118.196 151.474 124.032 154.773 130.75C157.417 136.102 158.384 140.742 158.384 148.058V152.841H149.285H140.185V142.593V132.344H137.91H135.635V142.593V152.841H124.119C117.777 152.841 112.602 152.812 112.602 152.755C112.573 152.727 111.663 146.208 110.498 138.266L108.45 123.804L110.725 120.36L113 116.944L112.175 112.759C111.749 110.453 111.322 108.347 111.237 108.062C111.18 107.806 111.18 107.578 111.265 107.578C111.351 107.578 116.924 109.058 123.664 110.852ZM98.6681 110.709C99.9193 111.336 101.199 111.848 101.512 111.848C101.825 111.848 103.133 111.336 104.384 110.681C105.663 110.055 106.744 109.599 106.829 109.685C107.028 109.884 108.024 114.666 108.052 115.492C108.052 115.833 107.341 117.2 106.431 118.538L104.839 120.958H101.512H98.1847L96.5922 118.538C95.6823 117.2 94.9714 115.862 94.9714 115.577C94.9714 115.264 95.1704 114.068 95.3979 112.93C96.0235 109.941 96.1088 109.571 96.251 109.571C96.3363 109.571 97.4169 110.083 98.6681 110.709ZM104.185 126.281C104.27 126.736 105.123 132.572 106.062 139.319C107 146.066 107.853 151.844 107.91 152.214L108.052 152.841H101.512H94.9714L95.1136 152.186C95.1704 151.844 96.0235 146.066 96.9619 139.319C97.9003 132.572 98.7534 126.736 98.8387 126.281L99.0093 125.512H101.512H104.014L104.185 126.281Z"/>
</mask>
<path d="M96.5354 23.3437C88.9713 24.4254 81.066 28.7524 76.3172 34.4174C73.2745 38.0042 71.938 41.1926 71.938 44.8079C71.938 47.4553 72.5636 49.3342 75.2082 54.6291L77.6252 59.4685H76.6015C74.6963 59.4685 73.2745 60.0948 71.7958 61.6035C68.8953 64.4787 68.8953 68.1225 71.7958 70.9977C73.3882 72.6203 74.6963 73.1327 77.1703 73.1327H78.7627V74.7553C78.7627 77.1466 79.7011 81.3313 80.8101 83.8648C82.2888 87.2524 83.6822 89.2167 87.0661 92.5189L90.1372 95.5364V99.4079V103.279L89.0851 103.564C76.8859 106.781 66.137 109.741 64.6867 110.282C55.5871 113.698 48.3643 120.303 44.042 129.071C40.9424 135.447 40.0894 139.774 40.0894 149.51V156.001L40.8003 156.684L41.4827 157.396H101.512H161.541L162.28 156.655L162.991 155.944L162.849 148.201C162.735 142.45 162.593 139.917 162.223 138.323C159.294 125.085 150.593 114.894 138.28 110.254C136.83 109.713 113.54 103.308 113 103.308C112.943 103.308 112.886 101.543 112.886 99.3794V95.4794L115.588 92.9743C117.066 91.5794 118.858 89.6437 119.569 88.6758C122.213 84.9466 123.863 80.3064 124.175 75.6094L124.346 73.1327H125.967C128.384 73.1327 130.033 72.4495 131.455 70.8553C134.014 68.0086 134.014 64.5926 131.455 61.7459C130.175 60.3225 128.412 59.4685 126.763 59.4685H125.938L126.962 57.6751C130.346 51.7823 131.256 49.1064 131 45.5196C130.687 40.9648 128.64 37.0648 124.261 32.7094C117.009 25.4218 106.545 21.8918 96.5354 23.3437ZM107.825 28.4108C112.915 29.7488 117.18 32.14 120.877 35.8407C122.213 37.1787 123.806 38.9721 124.374 39.8261C125.569 41.6196 126.536 44.4663 126.536 46.2028C126.536 47.9678 125.796 50.5013 124.716 52.4371L123.749 54.1167L123.294 52.6933C122.611 50.7006 120.934 48.224 119.114 46.4875C117.237 44.7225 111.521 41.2495 110.498 41.2495C109.986 41.2495 109.104 41.8473 107.512 43.3276C104.071 46.4875 100.289 48.0532 96.0235 48.0816C91.2747 48.0816 87.123 49.7612 81.6632 53.832C80.9239 54.4013 80.3551 54.6291 80.1845 54.4583C80.0423 54.3159 79.1892 52.6079 78.2793 50.6437C76.6868 47.1707 76.63 47.0283 76.63 44.6656C76.63 41.3634 77.4546 39.7407 80.8954 36.2393C85.4168 31.6276 90.7344 28.8948 97.1041 27.8415C99.4643 27.4714 105.379 27.7845 107.825 28.4108ZM114.536 48.594C116.355 49.7896 117.749 51.4123 118.773 53.6612L119.569 55.3407L119.654 65.5605C119.739 74.1291 119.683 76.1502 119.284 78.086C118.716 80.8473 117.152 84.3203 115.389 86.6546C113.967 88.505 108.507 93.3159 106.431 94.54C104.526 95.6218 101.938 96.0773 99.7202 95.6218C97.2747 95.1378 96.251 94.54 92.8955 91.6648C87.5779 87.0816 85.6727 84.5196 84.1372 79.8225C83.5116 77.9437 83.4831 77.3459 83.3694 68.094L83.2841 58.3583L85.6158 56.6218C86.9239 55.6539 88.4595 54.6291 89.0851 54.3159C90.7628 53.4619 94.2889 52.6364 96.3079 52.6364C100.63 52.6364 105.919 50.7006 109.332 47.8539L111.038 46.4305L112.033 47.0283C112.573 47.3415 113.711 48.0532 114.536 48.594ZM78.7627 66.3006V68.578H77.1987C75.2935 68.578 74.2129 67.7524 74.2129 66.3006C74.2129 64.8488 75.2935 64.0232 77.1987 64.0232H78.7627V66.3006ZM128.1 64.7349C128.555 65.1619 128.811 65.7597 128.811 66.3006C128.811 67.7524 127.73 68.578 125.825 68.578H124.261V66.3006V64.0232H125.825C127.133 64.0232 127.531 64.1371 128.1 64.7349ZM101.512 100.29C104.043 100.29 104.81 100.177 106.431 99.5502L108.336 98.8101V101.201V103.593L104.924 105.301L101.512 107.009L98.0994 105.301L94.687 103.593V101.201V98.8101L96.6207 99.5502C98.2131 100.177 98.9809 100.29 101.512 100.29ZM91.7865 108.062C91.7012 108.347 91.2747 110.453 90.8481 112.759L90.0235 116.944L92.2984 120.36L94.5733 123.804L92.5259 138.266C91.36 146.208 90.45 152.727 90.4216 152.755C90.4216 152.812 85.2462 152.841 78.9049 152.841H67.3882V142.593V132.344H65.1133H62.8384V142.593V152.841H53.7103H44.5823L44.7245 146.777C44.8667 140.144 45.2932 137.782 47.17 133.056C50.3833 125.085 57.0374 118.367 65.1702 114.979C66.8763 114.268 90.5069 107.692 91.6728 107.606C91.7865 107.578 91.8434 107.806 91.7865 108.062ZM123.664 110.852C131.256 112.873 136.886 114.552 138.45 115.236C145.332 118.196 151.474 124.032 154.773 130.75C157.417 136.102 158.384 140.742 158.384 148.058V152.841H149.285H140.185V142.593V132.344H137.91H135.635V142.593V152.841H124.119C117.777 152.841 112.602 152.812 112.602 152.755C112.573 152.727 111.663 146.208 110.498 138.266L108.45 123.804L110.725 120.36L113 116.944L112.175 112.759C111.749 110.453 111.322 108.347 111.237 108.062C111.18 107.806 111.18 107.578 111.265 107.578C111.351 107.578 116.924 109.058 123.664 110.852ZM98.6681 110.709C99.9193 111.336 101.199 111.848 101.512 111.848C101.825 111.848 103.133 111.336 104.384 110.681C105.663 110.055 106.744 109.599 106.829 109.685C107.028 109.884 108.024 114.666 108.052 115.492C108.052 115.833 107.341 117.2 106.431 118.538L104.839 120.958H101.512H98.1847L96.5922 118.538C95.6823 117.2 94.9714 115.862 94.9714 115.577C94.9714 115.264 95.1704 114.068 95.3979 112.93C96.0235 109.941 96.1088 109.571 96.251 109.571C96.3363 109.571 97.4169 110.083 98.6681 110.709ZM104.185 126.281C104.27 126.736 105.123 132.572 106.062 139.319C107 146.066 107.853 151.844 107.91 152.214L108.052 152.841H101.512H94.9714L95.1136 152.186C95.1704 151.844 96.0235 146.066 96.9619 139.319C97.9003 132.572 98.7534 126.736 98.8387 126.281L99.0093 125.512H101.512H104.014L104.185 126.281Z" fill="#181817" stroke="white" stroke-width="1.2" mask="url(#path-3-inside-1_449_1377)"/>
<path d="M11.3684 158.751V168.316L12.0793 168.999L12.7618 169.711H22.3164H31.8425V167.434V165.156H23.8804H15.9182V157.185V149.215H13.6433H11.3684V158.751Z" fill="#181817"/>
<path d="M218.1 157.185V165.156H210.137H202.175V167.434V169.711H211.701H221.256L221.939 168.999L222.649 168.316V158.751V149.215H220.375H218.1V157.185Z" fill="#181817"/>
<path d="M154.474 50.4434C152.083 51.0198 150.055 53.0622 149.492 55.4179C149.217 56.6333 149.217 92.0188 149.492 93.2342C149.93 95.0887 151.344 96.8555 153.059 97.6574C153.572 97.908 154.298 98.1711 154.661 98.2463C155.124 98.3466 162.96 98.3842 181.384 98.3842C210.023 98.3842 208.183 98.4343 209.785 97.6198C211.412 96.7928 212.876 94.8632 213.252 93.0212C213.44 92.0814 213.44 56.5707 213.252 55.6309C212.876 53.789 211.412 51.8593 209.785 51.0323C208.183 50.2178 210.048 50.268 181.284 50.2805C160.619 50.293 154.987 50.3181 154.474 50.4434ZM208.258 53.2878C209.259 53.7514 209.822 54.3027 210.285 55.255L210.699 56.0945V74.3261V92.5576L210.285 93.3971C209.822 94.3494 209.259 94.9008 208.258 95.3644L207.569 95.6902H181.347H155.124L154.286 95.2767C153.335 94.813 152.784 94.2492 152.321 93.2468L151.995 92.5576V74.3261V56.0945L152.321 55.4054C152.909 54.1649 153.773 53.4131 155.049 53.0747C155.5 52.9494 161.283 52.9244 181.597 52.9369L207.569 52.962L208.258 53.2878Z" fill="#181817"/>
<path d="M168.379 61.0442C165.637 61.4577 163.372 63.5878 162.809 66.2818C162.608 67.2592 162.721 68.9633 163.046 69.878C164.048 72.6221 166.839 74.4766 169.705 74.2887C173.122 74.0631 175.751 71.4318 175.939 68.0611C176.001 66.7455 175.826 65.8558 175.288 64.7281C174.049 62.1469 171.17 60.6182 168.379 61.0442ZM171.057 64.0389C171.871 64.4524 172.534 65.1291 172.922 65.9059C173.223 66.5074 173.273 66.7705 173.273 67.6226C173.26 68.9383 172.935 69.7151 172.008 70.5547C170.444 71.9831 168.216 71.9831 166.651 70.5547C164.724 68.8004 164.949 65.7932 167.127 64.3271C167.953 63.7758 168.341 63.6755 169.518 63.7257C170.256 63.7507 170.657 63.8259 171.057 64.0389Z" fill="#181817"/>
<path d="M187.092 64.0389C186.478 64.6529 186.641 65.7179 187.405 66.1189C187.755 66.2943 188.594 66.3194 196.204 66.2818L204.603 66.2442L204.928 65.9435C205.566 65.342 205.429 64.1642 204.678 63.8133C204.452 63.7131 201.874 63.6755 195.916 63.6755H187.455L187.092 64.0389Z" fill="#4A8DF2"/>
<path d="M187.33 74.5387C186.629 74.9772 186.504 76.0047 187.092 76.5937L187.455 76.957H195.916C201.874 76.957 204.453 76.9194 204.678 76.8192C205.429 76.4684 205.567 75.2905 204.928 74.6891L204.603 74.3883L196.142 74.3633C188.406 74.3382 187.643 74.3507 187.33 74.5387Z" fill="#4A8DF2"/>
<path d="M162.885 77.0953C161.934 77.2331 160.307 78.0225 159.543 78.6992C158.805 79.3507 158.104 80.4158 157.703 81.4684C157.44 82.1826 157.39 82.546 157.34 84.4255C157.29 86.2549 157.315 86.6183 157.503 86.9691C157.778 87.5205 158.442 87.7961 159.005 87.6082C159.819 87.345 159.869 87.1821 159.944 84.864C160.006 82.9595 160.044 82.7214 160.344 82.0823C160.745 81.2177 161.446 80.491 162.272 80.0775L162.885 79.7768L169.156 79.7392C175.264 79.7141 175.452 79.7141 176.14 79.9647C177.029 80.303 177.88 81.13 178.318 82.0698C178.619 82.7214 178.644 82.972 178.706 84.864C178.794 87.1821 178.844 87.345 179.658 87.6082C180.221 87.7961 180.884 87.5205 181.16 86.9691C181.485 86.3551 181.372 82.5835 180.997 81.5686C180.246 79.5136 178.794 78.0601 176.691 77.3083C175.915 77.0326 175.802 77.0201 169.769 77.0076C166.402 76.9951 163.298 77.0326 162.885 77.0953Z" fill="#181817"/>
<path d="M187.53 85.1527C187.017 85.3782 186.729 85.8043 186.729 86.3556C186.729 86.9195 187.017 87.333 187.555 87.5585C188.181 87.8216 203.94 87.8216 204.565 87.5585C205.003 87.3706 205.379 86.8192 205.379 86.3556C205.379 85.892 205.003 85.3406 204.565 85.1527C203.94 84.9021 188.118 84.9021 187.53 85.1527Z" fill="#4A8DF2"/>
</svg>
